<svg width="18" height="14" viewBox="0 0 18 14" fill="none" xmlns="http://www.w3.org/2000/svg">
<path d="M2.51917 11.5835H1.66667C1.42355 11.5835 1.19039 11.4869 1.01849 11.315C0.846577 11.1431 0.75 10.9099 0.75 10.6668V1.50017C0.75 1.25705 0.846577 1.02389 1.01849 0.851985C1.19039 0.680076 1.42355 0.583499 1.66667 0.583499H14.7567C14.9488 0.583003 15.1363 0.642917 15.2926 0.754771C15.4488 0.866625 15.566 1.02476 15.6275 1.20683L17.25 5.946C17.2793 6.03792 17.2947 6.13369 17.2958 6.23017V10.6668C17.2958 10.9099 17.1993 11.1431 17.0273 11.315C16.8554 11.4869 16.6223 11.5835 16.3792 11.5835H15.5542" stroke="#56BD00" stroke-linecap="round" stroke-linejoin="round"/>
<path d="M11.695 11.5835H6.36M17.1767 6.0835H0.75M11.75 0.583496V6.0835M4.41667 9.75016C4.05407 9.75016 3.69961 9.85769 3.39812 10.0591C3.09663 10.2606 2.86165 10.5469 2.72289 10.8819C2.58413 11.2169 2.54782 11.5855 2.61856 11.9412C2.6893 12.2968 2.86391 12.6235 3.1203 12.8799C3.3767 13.1363 3.70337 13.3109 4.059 13.3816C4.41463 13.4523 4.78326 13.416 5.11825 13.2773C5.45325 13.1385 5.73958 12.9035 5.94103 12.602C6.14248 12.3006 6.25 11.9461 6.25 11.5835C6.25 11.0973 6.05685 10.631 5.71303 10.2871C5.36921 9.94332 4.9029 9.75016 4.41667 9.75016ZM13.5833 9.75016C13.2207 9.75016 12.8663 9.85769 12.5648 10.0591C12.2633 10.2606 12.0283 10.5469 11.8896 10.8819C11.7508 11.2169 11.7145 11.5855 11.7852 11.9412C11.856 12.2968 12.0306 12.6235 12.287 12.8799C12.5434 13.1363 12.87 13.3109 13.2257 13.3816C13.5813 13.4523 13.9499 13.416 14.2849 13.2773C14.6199 13.1385 14.9062 12.9035 15.1077 12.602C15.3091 12.3006 15.4167 11.9461 15.4167 11.5835C15.4167 11.0973 15.2235 10.631 14.8797 10.2871C14.5359 9.94332 14.0696 9.75016 13.5833 9.75016Z" stroke="#56BD00" stroke-linecap="round" stroke-linejoin="round"/>
</svg>
