<svg width="60" height="60" viewBox="0 0 60 60" fill="none" xmlns="http://www.w3.org/2000/svg">
<path d="M30 17.5C33.3152 17.5 36.4946 18.817 38.8388 21.1612C41.183 23.5054 42.5 26.6848 42.5 30" stroke="#56BD00" stroke-width="3" stroke-linecap="round" stroke-linejoin="round"/>
<path d="M37.5001 52.5002C33.625 51.5759 29.9491 49.9582 26.6501 47.7252L31.2 41.2002C31.948 40.179 33.0555 39.4796 34.2989 39.243C35.5424 39.0064 36.8293 39.2502 37.9001 39.9252C38.7251 40.4502 39.5751 40.9252 40.4001 41.4002C41.0211 41.7038 41.5724 42.1329 42.0192 42.6603C42.466 43.1878 42.7986 43.8022 42.9959 44.4647C43.1933 45.1272 43.2511 45.8234 43.1657 46.5094C43.0804 47.1954 42.8537 47.8562 42.5001 48.4502L40.95 50.8252C40.6732 51.4731 40.1717 51.9993 39.5379 52.307C38.904 52.6147 38.1804 52.6833 37.5001 52.5002ZM9.17505 19.1752L11.6751 17.6252C12.2548 17.2489 12.9062 16.997 13.5883 16.8852C14.2703 16.7734 14.9681 16.8042 15.6376 16.9757C16.3072 17.1472 16.9338 17.4556 17.4782 17.8815C18.0225 18.3074 18.4726 18.8415 18.8001 19.4502C19.2751 20.3502 19.7501 21.2002 20.2751 21.9502C20.9501 23.0209 21.1938 24.3078 20.9572 25.5513C20.7206 26.7947 20.0212 27.9022 19.0001 28.6502L12.3501 33.2752C10.0988 30.0043 8.4558 26.3542 7.50005 22.5002C7.34968 21.8377 7.43459 21.1435 7.74023 20.5368C8.04587 19.93 8.55317 19.4486 9.17505 19.1752Z" stroke="#56BD00" stroke-width="3" stroke-linecap="round" stroke-linejoin="round"/>
<path d="M12.35 33.2749C14.1871 36.1565 16.3515 38.8159 18.8 41.1999C21.184 43.6484 23.8434 45.8128 26.725 47.6499" stroke="#56BD00" stroke-width="3" stroke-linecap="round" stroke-linejoin="round"/>
<path d="M27.5 7.65001C28.3295 7.54947 29.1644 7.49938 30 7.50001C35.9674 7.50001 41.6903 9.87053 45.9099 14.0901C50.1295 18.3097 52.5 24.0326 52.5 30C52.5006 30.8356 52.4505 31.6705 52.35 32.5" stroke="#56BD00" stroke-width="3" stroke-linecap="round" stroke-linejoin="round"/>
</svg>
