<svg width="60" height="60" viewBox="0 0 60 60" fill="none" xmlns="http://www.w3.org/2000/svg">
<path d="M27.5 37.5H17.5M52.5 22.5H7.5M7.5 45V15C7.5 14.337 7.76339 13.7011 8.23223 13.2322C8.70107 12.7634 9.33696 12.5 10 12.5H50C50.663 12.5 51.2989 12.7634 51.7678 13.2322C52.2366 13.7011 52.5 14.337 52.5 15V45C52.5 45.663 52.2366 46.2989 51.7678 46.7678C51.2989 47.2366 50.663 47.5 50 47.5H10C9.33696 47.5 8.70107 47.2366 8.23223 46.7678C7.76339 46.2989 7.5 45.663 7.5 45Z" stroke="#56BD00" stroke-width="3" stroke-linecap="round" stroke-linejoin="round"/>
</svg>
