<svg width="60" height="60" viewBox="0 0 60 60" fill="none" xmlns="http://www.w3.org/2000/svg">
<path d="M22.5 37.5002L37.5 22.5002M50.55 23.3252C49.8 21.0502 50.3 18.1252 48.925 16.2502C47.55 14.3752 44.6 13.9002 42.7 12.5002C40.8 11.1002 39.5 8.47517 37.225 7.75017C34.95 7.02517 32.5 8.40017 30 8.40017C27.5 8.40017 25 7.02517 22.775 7.75017C20.55 8.47517 19.2 11.1502 17.3 12.5002C15.4 13.8502 12.5 14.3252 11.075 16.2502C9.64997 18.1752 10.2 21.0502 9.44998 23.3252C8.69998 25.6002 6.59998 27.5002 6.59998 30.0002C6.59998 32.5002 8.74998 34.4752 9.44998 36.6752C10.15 38.8752 9.69997 41.8752 11.075 43.7502C12.45 45.6252 15.4 46.1002 17.3 47.4752C19.2 48.8502 20.5 51.5252 22.775 52.2502C25.05 52.9752 27.5 51.6002 30 51.6002C32.5 51.6002 35 52.9752 37.225 52.2502C39.45 51.5252 40.8 48.8502 42.7 47.4752C44.6 46.1002 47.55 45.6752 48.925 43.7502C50.3 41.8252 49.8 38.9502 50.55 36.6752C51.3 34.4002 53.4 32.5002 53.4 30.0002C53.4 27.5002 51.25 25.5252 50.55 23.3252Z" stroke="#56BD00" stroke-width="3" stroke-linecap="round" stroke-linejoin="round"/>
<path d="M23.625 23.75H23.875" stroke="#56BD00" stroke-width="3" stroke-linecap="round" stroke-linejoin="round"/>
<path d="M36.125 36.25H36.375" stroke="#56BD00" stroke-width="3" stroke-linecap="round" stroke-linejoin="round"/>
</svg>
