<svg width="18" height="18" viewBox="0 0 18 18" fill="none" xmlns="http://www.w3.org/2000/svg">
<path d="M17.25 17.25L11.75 11.75M13.5833 7.16667C13.5833 8.43576 13.207 9.67636 12.5019 10.7316C11.7969 11.7868 10.7947 12.6092 9.62222 13.0949C8.44973 13.5806 7.15955 13.7076 5.91484 13.46C4.67013 13.2125 3.52679 12.6013 2.6294 11.7039C1.73201 10.8065 1.12089 9.66321 0.873297 8.4185C0.625709 7.17378 0.75278 5.88361 1.23844 4.71111C1.7241 3.53862 2.54655 2.53648 3.60176 1.8314C4.65698 1.12633 5.89757 0.75 7.16667 0.75C8.86848 0.75 10.5006 1.42604 11.7039 2.6294C12.9073 3.83276 13.5833 5.46486 13.5833 7.16667Z" stroke="#56BD00" stroke-linecap="round" stroke-linejoin="round"/>
</svg>
