<svg width="12" height="18" viewBox="0 0 12 18" fill="none" xmlns="http://www.w3.org/2000/svg">
<path d="M10.5833 9.91667H1.41667M10.5833 9.91667V1.66667C10.5833 1.42355 10.4868 1.19039 10.3148 1.01849C10.1429 0.846577 9.90978 0.75 9.66667 0.75H2.33333C2.09022 0.75 1.85706 0.846577 1.68515 1.01849C1.51324 1.19039 1.41667 1.42355 1.41667 1.66667V9.91667M10.5833 9.91667C10.8264 9.91667 11.0596 10.0132 11.2315 10.1852C11.4034 10.3571 11.5 10.5902 11.5 10.8333V13.5833H0.5V10.8333C0.5 10.5902 0.596577 10.3571 0.768486 10.1852C0.940394 10.0132 1.17355 9.91667 1.41667 9.91667M1.41667 13.5833V17.25M10.5833 13.5833V17.25" stroke="#56BD00" stroke-linecap="round" stroke-linejoin="round"/>
</svg>
