<svg width="16" height="20" viewBox="0 0 16 20" fill="none" xmlns="http://www.w3.org/2000/svg">
<path d="M10.5298 5.72633C10.4779 5.65153 10.4579 5.55923 10.474 5.46966C10.4901 5.38009 10.541 5.30056 10.6157 5.24852C11.3995 4.70711 12.6284 4.70711 13.4121 5.24852C13.9587 5.62492 14.8816 5.62492 15.4282 5.24852C15.5032 5.20083 15.5939 5.18408 15.681 5.20178C15.7681 5.21948 15.845 5.27025 15.8955 5.34343C15.946 5.41662 15.9662 5.50652 15.9518 5.59426C15.9374 5.682 15.8896 5.76075 15.8184 5.81398C15.4001 6.07896 14.9152 6.21964 14.4202 6.21964C13.9251 6.21964 13.4402 6.07896 13.022 5.81398C12.4754 5.43758 11.5524 5.43758 11.0059 5.81398C10.931 5.86512 10.8389 5.88459 10.7498 5.86818C10.6606 5.85176 10.5815 5.80077 10.5298 5.72633ZM15.4282 7.99852C14.8816 8.37492 13.9587 8.37492 13.4121 7.99852C12.6284 7.45711 11.3995 7.45711 10.6157 7.99852C10.5767 8.02331 10.5431 8.05573 10.5168 8.09383C10.4906 8.13192 10.4724 8.17491 10.4632 8.22023C10.454 8.26554 10.454 8.31224 10.4633 8.35754C10.4725 8.40285 10.4909 8.44581 10.5171 8.48387C10.5434 8.52193 10.577 8.5543 10.6161 8.57904C10.6552 8.60379 10.6988 8.62039 10.7445 8.62787C10.7901 8.63535 10.8368 8.63355 10.8817 8.62257C10.9266 8.6116 10.9688 8.59167 11.0059 8.56398C11.5524 8.18758 12.4754 8.18758 13.022 8.56398C13.4402 8.82895 13.9251 8.96964 14.4202 8.96964C14.9152 8.96964 15.4001 8.82895 15.8184 8.56398C15.8896 8.51075 15.9374 8.432 15.9518 8.34426C15.9662 8.25652 15.946 8.16662 15.8955 8.09343C15.845 8.02025 15.7681 7.96948 15.681 7.95178C15.5939 7.93408 15.5032 7.95083 15.4282 7.99852ZM7.71875 14.8125C7.7188 15.2737 7.58628 15.7253 7.33697 16.1133C7.08767 16.5014 6.73208 16.8096 6.31256 17.0013C5.89304 17.193 5.42726 17.2601 4.9707 17.1946C4.51413 17.1291 4.08601 16.9337 3.73733 16.6318C3.38865 16.3298 3.13409 15.934 3.00398 15.4915C2.87386 15.049 2.87367 14.5784 3.00343 14.1358C3.13318 13.6932 3.38741 13.2972 3.73585 12.995C4.08428 12.6928 4.51224 12.4971 4.96875 12.4312V3.125C4.96875 3.03383 5.00497 2.9464 5.06943 2.88193C5.1339 2.81747 5.22133 2.78125 5.3125 2.78125C5.40367 2.78125 5.4911 2.81747 5.55557 2.88193C5.62004 2.9464 5.65625 3.03383 5.65625 3.125V12.4312C6.2289 12.5138 6.75259 12.8 7.13138 13.2374C7.51017 13.6747 7.71869 14.2339 7.71875 14.8125ZM7.03125 14.8125C7.03125 14.4726 6.93045 14.1403 6.74159 13.8576C6.55273 13.575 6.2843 13.3547 5.97024 13.2246C5.65618 13.0945 5.31059 13.0605 4.97719 13.1268C4.64378 13.1931 4.33753 13.3568 4.09716 13.5972C3.85679 13.8375 3.6931 14.1438 3.62678 14.4772C3.56046 14.8106 3.5945 15.1562 3.72458 15.4702C3.85467 15.7843 4.07497 16.0527 4.35762 16.2416C4.64026 16.4304 4.97257 16.5312 5.3125 16.5312C5.76834 16.5312 6.20551 16.3502 6.52784 16.0278C6.85017 15.7055 7.03125 15.2683 7.03125 14.8125ZM10.4688 14.8125C10.4688 15.6914 10.2441 16.5557 9.81608 17.3234C9.38808 18.0911 8.77095 18.7366 8.0233 19.1987C7.27565 19.6607 6.42229 19.924 5.54427 19.9635C4.66624 20.003 3.79268 19.8175 3.00656 19.4244C2.22043 19.0313 1.54782 18.4438 1.05261 17.7177C0.557399 16.9916 0.256018 16.1509 0.177086 15.2756C0.0981547 14.4002 0.244293 13.5192 0.601624 12.7162C0.958956 11.9132 1.51562 11.2149 2.21875 10.6875V3.125C2.21875 2.30449 2.5447 1.51758 3.12489 0.937388C3.70508 0.357198 4.49199 0.03125 5.3125 0.03125C6.13302 0.03125 6.91992 0.357198 7.50011 0.937388C8.0803 1.51758 8.40625 2.30449 8.40625 3.125V10.6875C9.04634 11.1681 9.56589 11.7909 9.92385 12.5068C10.2818 13.2227 10.4684 14.0121 10.4688 14.8125ZM9.78125 14.8125C9.78086 14.0921 9.6065 13.3824 9.273 12.7438C8.9395 12.1052 8.45671 11.5567 7.86571 11.1447C7.81985 11.1127 7.7825 11.07 7.75689 11.0202C7.73128 10.9705 7.71819 10.9153 7.71875 10.8594V3.125C7.71875 2.48682 7.46524 1.87478 7.01398 1.42352C6.56272 0.972265 5.95068 0.71875 5.3125 0.71875C4.67432 0.71875 4.06229 0.972265 3.61103 1.42352C3.15977 1.87478 2.90625 2.48682 2.90625 3.125V10.8594C2.90626 10.9147 2.8929 10.9692 2.86732 11.0183C2.84173 11.0674 2.80467 11.1096 2.7593 11.1412C2.12878 11.5802 1.62207 12.1743 1.28809 12.8662C0.954117 13.558 0.804152 14.3243 0.852676 15.091C0.9012 15.8578 1.14657 16.599 1.56511 17.2433C1.98365 17.8875 2.56121 18.413 3.24203 18.769C3.92286 19.1249 4.68396 19.2993 5.45185 19.2754C6.21974 19.2514 6.96848 19.0299 7.62579 18.6322C8.28311 18.2345 8.82679 17.6741 9.20436 17.005C9.58192 16.3359 9.78061 15.5808 9.78125 14.8125Z" fill="#56BD00"/>
</svg>
